# xmcd
#
# Track frame offsets: 
#        150
#        15419
#        29428
#        45982
#        59917
#        75890
#        89942
#        107659
#        122175
#        138836
#        151293
#        166072
#
# Disc length: 2337 seconds
#
# Revision: 0
# Processed by: cddbd v1.5.2PL0 Copyright (c) Steve Scherf et al.
# Submitted via: ExactAudioCopy v0.99pb5
#
DISCID=91091f0c
DTITLE=Perereca - A Emocao Das Vaquejadas
DYEAR=1900
DGENRE=Country
TTITLE0=Distante De Voce - Perereca
TTITLE1=Mim Dê Amor - Perereca
TTITLE2=Touro Velho - Perereca E Sebastiao
TTITLE3=Pra La De Bom - Sebastiao
TTITLE4=La Vai A Boiada - Manoel Pedro E Jackson Do Pandeiro
TTITLE5=Vaqueiro Velho - Batore E Carlinhos Do Nordeste
TTITLE6=Nem Pra Mim Nem Pra Ninguem - Evaldo Silva
TTITLE7=Volta Benzinho - Perereca
TTITLE8=Salvacao Do Vaqueiro - Sebastiao
TTITLE9=Mulher Safada - Sebastiao
TTITLE10=Forca Nordestina - Marcolino E Meiota
TTITLE11=Quem Ama Mulher Casada - Perereca
EXTD=
EXTT0=
EXTT1=
EXTT2=
EXTT3=
EXTT4=
EXTT5=
EXTT6=
EXTT7=
EXTT8=
EXTT9=
EXTT10=
EXTT11=
PLAYORDER=
